<svg width="43" height="38" viewBox="0 0 43 38" fill="none" xmlns="http://www.w3.org/2000/svg">
<path fill-rule="evenodd" clip-rule="evenodd" d="M12.961 3.44787L14.4098 3.03393C19.178 1.67159 24.2206 1.58757 29.0316 2.7903L30.9806 3.27756C35.5246 4.41355 39.1169 7.88813 40.4036 12.3917L40.9449 14.2862C41.9421 17.7763 41.7517 21.4987 40.4036 24.8688L40.2549 25.2406C39.1418 28.0234 36.5185 29.8917 33.5514 30.0558L33.1254 30.0676C29.76 30.0676 26.4949 31.2129 23.867 33.3152L22.7278 34.2266C19.5272 36.787 15.177 37.3776 11.4096 35.763L10.2507 35.2663C5.74299 33.3345 2.59857 29.1561 1.99027 24.2897L1.64493 21.5269C1.15771 17.6292 1.9912 13.6806 4.0122 10.3122C6.01643 6.97184 9.21532 4.51805 12.961 3.44787ZM29.0316 2.7903L30.9806 3.27756C35.5246 4.41355 39.1169 7.88813 40.4036 12.3917L40.9449 14.2862C41.0748 14.7409 41.1846 15.1995 41.2742 15.6607C41.0808 16.6712 40.7897 17.6652 40.4036 18.6303L40.2549 19.0021C39.1418 21.7849 36.5185 23.6532 33.5514 23.8173L33.1254 23.829C29.76 23.829 26.4949 24.9744 23.867 27.0767L22.7278 27.9881C19.5272 30.5485 15.177 31.1391 11.4096 29.5245L10.2507 29.0278C5.74299 27.0959 2.59857 22.9176 1.99027 18.0512L1.77095 16.3282C2.13959 14.2165 2.8942 12.1756 4.0122 10.3122C6.01643 6.97184 9.21532 4.51805 12.961 3.44787L14.4098 3.03393C19.178 1.67159 24.2206 1.58757 29.0316 2.7903ZM41.3394 16.1464C39.368 12.0833 35.2487 9.50352 30.7326 9.50352H30.0581C24.8018 9.50352 19.661 7.96099 15.273 5.06713L13.9419 4.18921C13.5706 3.94437 13.1925 3.71328 12.8084 3.49604L12.961 3.44787L14.4098 3.03393C16.7939 2.35276 19.2466 1.99117 21.7046 1.95021L22.6265 1.94989C24.7776 1.9842 26.9268 2.26411 29.0316 2.7903L30.9806 3.27756C35.5246 4.41355 39.1169 7.88813 40.4036 12.3917L40.9449 14.2862C41.1319 14.9406 41.2771 15.6031 41.3808 16.27L41.3723 16.2144C41.3614 16.1917 41.3504 16.1691 41.3394 16.1464ZM9.28487 16.8336C9.28487 18.5564 11.1469 19.9529 13.4439 19.9529C15.7409 19.9529 17.6029 18.5564 17.6029 16.8336C17.6029 15.1109 15.7409 13.7144 13.4439 13.7144C11.1469 13.7144 9.28487 15.1109 9.28487 16.8336Z" stroke="black" stroke-width="1.94954" stroke-linecap="square"/>
</svg>
