<svg width="40" height="37" viewBox="0 0 40 37" fill="none" xmlns="http://www.w3.org/2000/svg">
<path d="M16.8994 30.6668C17.8056 32.3612 19.1354 33.691 20.8298 34.5972C22.5242 35.5033 24.5833 35.9859 26.948 35.9859C29.3127 35.9859 31.3717 35.5033 33.0661 34.5972C34.7606 33.691 36.0904 32.3612 36.9965 30.6668C37.9027 28.9723 38.3853 26.9133 38.3853 24.5486C38.3853 22.1839 37.9027 20.1249 36.9965 18.4304C36.0904 16.736 34.7606 15.4062 33.0661 14.5001C31.3717 13.5939 29.3127 13.1113 26.948 13.1113C24.5833 13.1113 22.5242 13.5939 20.8298 14.5001M16.8994 30.6668C15.9933 28.9723 15.5107 26.9133 15.5107 24.5486C15.5107 22.1839 15.9933 20.1249 16.8994 18.4304C17.8056 16.736 19.1354 15.4062 20.8298 14.5001M16.8994 30.6668C16.6692 30.2363 16.4663 29.7822 16.2917 29.3056C16.044 29.4646 15.7814 29.612 15.5107 29.7474C12.8925 31.0565 9.8108 31.0565 7.19264 29.7474C4.56848 28.4353 2.69707 25.9852 2.12169 23.1082L1.99386 22.4691C1.30641 19.0319 1.24944 15.4983 1.8257 12.0407L2.26917 9.37992C2.74946 6.4982 4.5796 4.02026 7.19264 2.71375C9.8108 1.40466 12.8925 1.40466 15.5107 2.71375C18.1237 4.02026 19.9539 6.4982 20.4341 9.37992L20.8776 12.0407C21.0045 12.8021 21.1007 13.5672 21.1662 14.3341L20.8298 14.5001M32.0945 19.4021L31.2331 20.2634M22.6628 28.8338L21.8015 29.6951M22.6628 20.2634L21.8015 19.4021M32.0945 29.6951L31.2331 28.8338M33.3649 24.5486H33.0081M20.8878 24.5486H20.5311M26.948 18.4885V18.1317M26.948 30.9655C26.948 30.8262 26.948 30.6087 26.948 30.6087M26.948 21.4293C28.6707 21.4293 30.0673 22.8259 30.0673 24.5486C30.0673 26.2713 28.6707 27.6679 26.948 27.6679C25.2253 27.6679 23.8287 26.2713 23.8287 24.5486C23.8287 22.8259 25.2253 21.4293 26.948 21.4293Z" stroke="black" stroke-width="1.94954" stroke-linecap="round"/>
</svg>
