<svg width="40" height="33" viewBox="0 0 40 33" fill="none" xmlns="http://www.w3.org/2000/svg">
<path d="M22.4086 15.7234C26.9536 15.1458 31.4418 17.7371 33.2141 21.9619M23.6628 3.86864L28.3837 7.6453C29.3832 8.44492 29.9899 9.5536 30.1764 10.7254C28.0582 9.92211 25.7027 9.68787 23.3398 10.1551L21.4803 10.5228C20.6856 10.68 19.9291 10.9904 19.2531 11.4367C17.2198 12.7792 16.2284 15.1076 16.4949 17.3751C12.8025 17.4181 9.10808 17.0762 5.47092 16.3487C2.79504 15.8136 1.05965 13.2105 1.59483 10.5346C1.82283 9.39462 2.44548 8.37154 3.35329 7.6453L8.07412 3.86864C12.631 0.22315 19.106 0.22315 23.6628 3.86864ZM10.6693 17.0099C12.6046 17.2393 14.5493 17.3615 16.4947 17.3767C16.6048 18.3127 16.9309 19.242 17.4884 20.0864L18.1143 19.9359C19.4589 19.6491 20.8409 19.5871 22.2041 19.7515L22.3042 20.0627L19.0107 25.7677C18.5444 26.5755 18.3798 27.4746 18.482 28.3347C17.6679 28.6533 16.7833 28.8258 15.8685 28.8258C12.9973 28.8258 10.6697 26.4982 10.6697 23.627L10.6693 17.0099ZM37.5707 18.3713L38.182 20.1656C39.2932 23.427 37.5501 26.9716 34.2887 28.0827C33.6753 28.2917 33.034 28.4036 32.3881 28.4151L31.8957 28.4044C31.4607 26.781 30.7025 25.265 29.6692 23.9461L26.2144 29.9267C25.0659 31.9159 22.5223 32.5975 20.533 31.449C18.5438 30.3005 17.8623 27.7569 19.0107 25.7677L22.4645 19.7857C21.0172 19.5801 19.5446 19.6308 18.1143 19.9359L17.4884 20.0864C15.586 17.205 16.3779 13.3351 19.2531 11.4367C19.9291 10.9904 20.6856 10.68 21.4803 10.5228L23.3398 10.1551C29.4719 8.94251 35.5549 12.4545 37.5707 18.3713Z" stroke="black" stroke-width="1.94954" stroke-linecap="round"/>
</svg>
