<svg width="41" height="40" viewBox="0 0 41 40" fill="none" xmlns="http://www.w3.org/2000/svg">
<path d="M2.33339 38.0249L32.5602 7.79814M2.33339 38.0249L5.01781 35.3405C7.22566 33.1327 7.65941 29.7104 6.07219 27.0216M2.33339 38.0249L10.996 29.3623C13.0143 27.344 13.0143 24.0717 10.996 22.0534M2.33339 38.0249L18.3482 22.0102C19.5544 20.804 19.5544 18.8483 18.3482 17.6421M2.33339 38.0249L27.906 12.4523C28.7061 11.6522 28.7061 10.3549 27.906 9.55474M2.33339 38.0249L24.9651 15.3932C25.7653 14.5931 25.7653 13.2958 24.9651 12.4956M2.33339 38.0249L5.04883 35.3095C7.25296 33.1054 10.6477 32.6213 13.38 34.1215M2.33339 38.0249L10.9527 29.4056C12.9949 27.3634 16.306 27.3634 18.3482 29.4056M2.33339 38.0249L18.3049 22.0534C19.535 20.8233 21.5294 20.8233 22.7595 22.0534M2.33339 38.0249L27.8627 12.4956C28.6868 11.6716 30.0228 11.6716 30.8469 12.4956M2.33339 38.0249L24.9218 15.4365C25.7459 14.6124 27.0819 14.6124 27.906 15.4365M8.76567 19.7791L9.87342 21.6253C10.7598 23.1025 10.2807 25.0186 8.80352 25.9049C8.31874 26.1958 7.76402 26.3494 7.19867 26.3494L4.98318 26.3494C3.26046 26.3494 1.86392 24.9529 1.86392 23.2302C1.86392 22.6648 2.01757 22.1101 2.30843 21.6253L3.41618 19.7791C4.30251 18.3019 6.21855 17.8228 7.69577 18.7092M8.76567 19.7791C8.50225 19.34 8.13481 18.9726 7.69577 18.7092M8.76567 19.7791L9.60907 21.1899C9.89059 21.2734 10.1887 21.3182 10.4973 21.3182L12.7128 21.3182C13.2782 21.3182 13.8329 21.1646 14.3177 20.8737C15.7949 19.9874 16.2739 18.0713 15.3876 16.5941M7.69577 18.7092C7.59893 18.6511 7.5002 18.5988 7.39999 18.5524C7.38483 18.4374 7.37805 18.319 7.37805 18.199C7.37805 17.6336 7.5317 17.0789 7.82257 16.5941L8.93031 14.7479C9.81665 13.2706 11.7327 12.7916 13.2099 13.678M18.7763 30.5282L20.6225 31.6359C21.0616 31.8994 21.429 32.2668 21.6924 32.7058C22.5788 34.1831 22.0998 36.0991 20.6225 36.9854M18.7763 30.5282C17.2991 29.6419 15.383 30.1209 14.4967 31.5981C14.2058 32.0829 14.0522 32.6376 14.0522 33.2029L14.0522 35.4184C14.0522 37.1412 15.4487 38.5377 17.1714 38.5377C17.7368 38.5377 18.2915 38.384 18.7763 38.0932L20.6225 36.9854M18.7763 30.5282L19.2111 30.7905C19.128 30.5096 19.0834 30.2122 19.0834 29.9043L19.0834 27.6888C19.0834 27.1235 19.237 26.5687 19.5279 26.084C20.4142 24.6067 22.3303 24.1277 23.8075 25.0141M20.6225 36.9854C22.0029 36.1572 22.5117 34.4299 21.8474 33.0036C21.964 33.0168 22.0825 33.0236 22.2026 33.0236C22.768 33.0236 23.3227 32.8699 23.8075 32.579L25.6537 31.4713C27.131 30.585 27.61 28.6689 26.7236 27.1917M15.3876 16.5941L14.2798 14.7479C14.0164 14.3088 13.6489 13.9414 13.2099 13.678M15.3876 16.5941C15.4469 16.6929 15.5 16.7937 15.5472 16.8961L15.77 16.9069L17.9855 16.9069C18.5508 16.9069 19.1055 16.7533 19.5903 16.4624C21.0675 15.5761 21.5466 13.66 20.6602 12.1828L19.5525 10.3366C19.2891 9.89753 18.9216 9.53009 18.4826 9.26667C17.0054 8.38033 15.0893 8.85934 14.203 10.3366L13.0952 12.1828C12.8674 12.5626 12.7237 12.9852 12.6748 13.422C12.8576 13.489 13.0368 13.5741 13.2099 13.678M26.7236 27.1917C26.4602 26.7527 26.0928 26.3852 25.6537 26.1218L23.8075 25.0141M26.7236 27.1917C26.8275 27.3648 26.9126 27.544 26.9793 27.7294C27.4164 27.6779 27.8391 27.5342 28.2188 27.3064L30.065 26.1986C31.5423 25.3123 32.0213 23.3963 31.1349 21.919C30.8715 21.48 30.5041 21.1126 30.065 20.8491L28.2188 19.7414C26.7416 18.8551 24.8255 19.3341 23.9392 20.8113C23.6483 21.2961 23.4947 21.8508 23.4947 22.4161L23.4947 24.6316L23.5055 24.8544C23.6079 24.9016 23.7087 24.9548 23.8075 25.0141M25.5165 7.53289C26.3787 8.96977 25.9127 10.8335 24.4759 11.6956C24.0043 11.9786 23.4647 12.128 22.9148 12.128L22.6041 12.128C20.9284 12.128 19.57 10.7696 19.57 9.09392C19.57 8.54401 19.7195 8.00443 20.0024 7.53289C20.916 6.0102 22.891 5.51645 24.4137 6.43006C24.8663 6.70159 25.245 7.08034 25.5165 7.53289ZM34.3392 16.3555C35.2013 17.7924 34.7354 19.6561 33.2985 20.5182C32.8269 20.8012 32.2874 20.9506 31.7374 20.9506L31.4267 20.9506C29.7511 20.9506 28.3926 19.5922 28.3926 17.9165C28.3926 17.3666 28.5421 16.8271 28.825 16.3555C29.7386 14.8328 31.7136 14.3391 33.2363 15.2527C33.6889 15.5242 34.0676 15.903 34.3392 16.3555ZM31.3983 4.59202C32.2604 6.0289 31.7945 7.89262 30.3576 8.75475C29.8861 9.03768 29.3465 9.18713 28.7966 9.18713L28.4859 9.18713C26.8102 9.18713 25.4518 7.82872 25.4518 6.15304C25.4518 5.60313 25.6012 5.06356 25.8842 4.59202C26.7978 3.06933 28.7728 2.57558 30.2955 3.48919C30.748 3.76072 31.1268 4.13947 31.3983 4.59202ZM37.28 10.4738C38.1422 11.9106 37.6762 13.7744 36.2393 14.6365C35.7678 14.9194 35.2282 15.0689 34.6783 15.0689L34.3676 15.0689C32.6919 15.0689 31.3335 13.7105 31.3335 12.0348C31.3335 11.4849 31.483 10.9453 31.7659 10.4738C32.6795 8.95108 34.6545 8.45732 36.1772 9.37094C36.6298 9.64246 37.0085 10.0212 37.28 10.4738ZM38.7505 3.12158C39.6126 4.55847 39.1467 6.42219 37.7098 7.28432C37.2382 7.56724 36.6987 7.7167 36.1488 7.7167L35.838 7.7167C34.1624 7.7167 32.804 6.35829 32.804 4.68261C32.804 4.1327 32.9534 3.59313 33.2363 3.12158C34.1499 1.5989 36.125 1.10514 37.6476 2.01876C38.1002 2.29028 38.4789 2.66904 38.7505 3.12158Z" stroke="black" stroke-width="1.94954" stroke-linecap="round"/>
</svg>
