<svg width="41" height="41" viewBox="0 0 41 41" fill="none" xmlns="http://www.w3.org/2000/svg">
<path d="M30.7778 16.8949C30.9663 17.0854 31.1097 17.3076 31.2053 17.5464L33.8843 17.534C34.6595 17.5298 35.3599 17.0705 35.6727 16.3611C36.0795 15.4385 35.7203 14.3719 34.8714 13.8735L34.6981 13.7847L36.6701 13.1191C37.1634 12.9523 37.5704 12.5966 37.8018 12.1301C38.2842 11.1573 37.8867 9.97758 36.9139 9.49513L36.1406 9.11018L36.6952 8.55749C37.8398 7.41284 37.8398 5.55699 36.6952 4.41234C35.5505 3.26768 33.6947 3.26768 32.55 4.41234L31.9719 4.98855L31.5416 4.12285C31.3103 3.65634 30.9033 3.30066 30.41 3.13386C29.3813 2.78605 28.2655 3.33799 27.9177 4.36666L27.3077 6.1649L27.2926 6.12087C27.0112 5.35576 26.2844 4.84573 25.4693 4.84134C24.3901 4.83552 23.5106 5.70561 23.5048 6.78474L23.4896 9.74913C23.6722 9.8404 23.8425 9.96112 23.9929 10.11M30.7778 16.8949C30.0141 16.1229 28.7693 16.1162 27.9973 16.8799L8.56067 36.108C8.08259 36.581 7.39594 36.7768 6.74032 36.6271M30.7778 16.8949C31.35 17.4732 31.5064 18.3436 31.1731 19.0843L32.8754 18.243C33.8487 17.7616 35.028 18.1603 35.5095 19.1337C35.7403 19.6004 35.7766 20.1397 35.6104 20.6332L35.2611 21.6683L37.1537 21.6685C38.6799 21.6685 39.9172 22.9057 39.9172 24.432C39.9172 25.9582 38.6799 27.1954 37.1537 27.1954L35.2611 27.1936L35.6104 28.2307C35.9571 29.2598 35.404 30.375 34.3749 30.7218C33.8815 30.888 33.3422 30.8517 32.8754 30.6209L31.0127 29.6994L31.0701 29.8824C31.3179 30.8351 30.8177 31.8433 29.8777 32.208C29.1549 32.4884 28.3349 32.318 27.7838 31.7728L23.1567 27.1954L11.9553 38.2767C10.4231 39.7924 7.95637 39.7924 6.42422 38.2767L4.16161 36.0384L6.74032 36.6271M6.74032 36.6271L4.72256 36.1655L4.26074 34.1475M4.26074 34.1475C4.11106 33.4919 4.30686 32.8052 4.77981 32.3271M4.26074 34.1475L4.84944 36.7262L2.6111 34.4636C1.09539 32.9314 1.09539 30.4647 2.6111 28.9326L13.6924 17.7311L9.11506 13.1041C8.56985 12.5529 8.39938 11.7329 8.67979 11.0101C9.04449 10.0701 10.0527 9.56987 11.0054 9.81767L11.1884 9.87511L10.2669 8.0124C10.0361 7.54564 9.99979 7.00636 10.1661 6.51288C10.5128 5.48385 11.6281 4.93074 12.6571 5.27747L13.6942 5.62667L13.6924 3.73408C13.6924 2.20788 14.9297 0.970647 16.4559 0.970647C17.9821 0.970647 19.2193 2.20788 19.2193 3.73408L19.2195 5.62667L20.2546 5.27747C20.7481 5.11119 21.2874 5.14747 21.7542 5.37834C22.7275 5.85978 23.1262 7.03909 22.6448 8.0124L21.8035 9.71469C22.5442 9.38142 23.4146 9.53783 23.9929 10.11M4.77981 32.3271L18.3064 18.6526L23.4684 13.4921L23.4677 13.4355L24.0079 12.8905M4.77981 32.3271L24.0079 12.8905M24.0079 12.8905C24.7716 12.1185 24.7649 10.8737 23.9929 10.11M31.3474 9.68931L29.3722 11.6645M16.4559 9.35086L16.4559 12.1443M11.584 21.2333L19.8743 29.5236M31.537 24.4319L28.7436 24.432" stroke="black" stroke-width="1.94954" stroke-linecap="round"/>
</svg>
