<svg width="40" height="40" viewBox="0 0 40 40" fill="none" xmlns="http://www.w3.org/2000/svg">
<path d="M27.6452 33.2051L27.4563 33.6181C25.5426 37.5473 21.1236 39.6328 16.8438 38.5628L16.2079 38.4038L16.2189 38.062C16.395 35.3502 18.6503 33.2051 21.4067 33.2051C18.5355 33.2051 16.2079 30.8775 16.2079 28.0063L16.8438 27.8473C21.2712 26.7405 25.8475 29.0104 27.6452 33.2051ZM27.6452 33.2051L28.8673 26.4835C29.3461 23.85 27.6587 21.3087 25.0458 20.728C21.9316 20.036 18.8786 19.0929 15.9167 17.9082L15.1681 17.6087C12.0282 16.3528 9.96935 13.3117 9.96935 9.92998V9.2907M27.6452 33.2051L30.6495 31.9175C33.4092 30.7348 35.6603 28.6122 37.003 25.9268L37.1653 25.6022C38.4025 23.1278 38.7137 20.2925 38.0427 17.6087C37.3865 14.9839 35.5579 12.8075 33.0855 11.7086L32.3241 11.3702C29.2392 9.99914 25.9009 9.2907 22.525 9.2907H16.2079M9.96935 9.2907C7.67238 9.2907 5.81033 7.42864 5.81033 5.13168V3.05217M9.96935 9.2907H16.2079M16.2079 9.2907H5.81033C3.51336 9.2907 1.65131 7.42864 1.65131 5.13168V0.972656M38.3554 21.2987L38.1259 21.667C36.4732 24.1925 33.5612 25.7117 30.4398 25.5166L28.9457 25.4223M37.0668 15.242L33.3071 18.5834L32.9017 18.9238C30.8341 20.5628 28.1693 21.2545 25.5655 20.8282M30.3587 10.5978L24.51 15.9218L24.1398 16.2404C21.7502 18.1864 18.5222 18.7655 15.6044 17.7703L15.9662 17.8831" stroke="black" stroke-width="1.94954" stroke-linecap="round"/>
<path d="M18.2874 13.4492H18.4954" stroke="black" stroke-width="2.92431" stroke-linecap="round"/>
</svg>
